/* XPM */
static char *collectable__41_1710156750[] = {
/* columns rows colors chars-per-pixel */
"64 64 212 2 ",
"   c white",
".  c #F8FDFD",
"X  c #EAFAFA",
"o  c #FBFEFE",
"O  c #F6FDFD",
"+  c #DEF7F7",
"@  c #CCF2F2",
"#  c #CDF3F3",
"$  c #DFF7F7",
"%  c #ACEAEA",
"&  c #5CD6D6",
"*  c #C8F1F1",
"=  c #F9FEFE",
"-  c #C0EFEF",
";  c #75DCDC",
":  c #4BD2D2",
">  c #3DCFCF",
",  c #3ECFCF",
"<  c #4DD2D2",
"1  c #77DDDD",
"2  c #C1F0F0",
"3  c #FDFEFE",
"4  c #88E1E1",
"5  c #2FCBCB",
"6  c #A0E7E7",
"7  c #F5FCFC",
"8  c #9AE6E6",
"9  c #40CFCF",
"0  c #31CBCB",
"q  c #44D0D0",
"w  c #5AD6D6",
"e  c #41CFCF",
"r  c #F5FDFD",
"t  c #FEFFFF",
"y  c #93E4E4",
"u  c #30CBCB",
"i  c #95E5E5",
"p  c #FCFEFE",
"a  c #39CECE",
"s  c #8BE2E2",
"d  c #D2F4F4",
"f  c #EDFAFA",
"g  c #ECFAFA",
"h  c #D3F4F4",
"j  c #8DE3E3",
"k  c #A3E8E8",
"l  c #9FE7E7",
"z  c #2ECBCB",
"x  c #8CE2E2",
"c  c #FDFFFF",
"v  c #49D2D2",
"b  c #3BCECE",
"n  c #A5E9E9",
"m  c #FAFEFE",
"M  c #D4F4F4",
"N  c #CFF3F3",
"B  c #6FDBDB",
"V  c #BCEEEE",
"C  c #95E4E4",
"Z  c #79DDDD",
"A  c #F4FCFC",
"S  c #76DDDD",
"D  c #96E5E5",
"F  c #D1F4F4",
"G  c #A1E7E7",
"H  c #E2F8F8",
"J  c #6DDADA",
"K  c #35CCCC",
"L  c #B5ECEC",
"P  c #A9E9E9",
"I  c #33CCCC",
"U  c #6CDADA",
"Y  c #F2FCFC",
"T  c #31CCCC",
"R  c #68D9D9",
"E  c #D6F5F5",
"W  c #EFFBFB",
"Q  c #5FD7D7",
"!  c #3CCECE",
"~  c #CAF2F2",
"^  c #DCF6F6",
"/  c #84E0E0",
"(  c #55D4D4",
")  c #32CCCC",
"_  c #80DFDF",
"`  c #C1EFEF",
"'  c #60D7D7",
"]  c #F1FCFC",
"[  c #64D8D8",
"{  c #38CDCD",
"}  c #37CDCD",
"|  c #43D0D0",
" . c #3ACECE",
".. c #6EDBDB",
"X. c #A1E8E8",
"o. c #81E0E0",
"O. c #92E4E4",
"+. c #E9F9F9",
"@. c #B3ECEC",
"#. c #C3F0F0",
"$. c #BEEFEF",
"%. c #86E1E1",
"&. c #42D0D0",
"*. c #81DFDF",
"=. c #E7F9F9",
"-. c #B8EDED",
";. c #E5F8F8",
":. c #BBEEEE",
">. c #48D1D1",
",. c #ABEAEA",
"<. c #A7E9E9",
"1. c #B4ECEC",
"2. c #35CDCD",
"3. c #9DE7E7",
"4. c #3FCFCF",
"5. c #E3F8F8",
"6. c #52D4D4",
"7. c #CDF2F2",
"8. c #EDFBFB",
"9. c #3CCFCF",
"0. c #97E5E5",
"q. c #36CDCD",
"w. c #BAEEEE",
"e. c #E4F8F8",
"r. c #7ADEDE",
"t. c #34CCCC",
"y. c #45D0D0",
"u. c #A9EAEA",
"i. c #E6F9F9",
"p. c #6ADADA",
"a. c #D8F5F5",
"s. c #4FD3D3",
"d. c #5DD7D7",
"f. c #E0F7F7",
"g. c #59D6D6",
"h. c #F0FBFB",
"j. c #50D3D3",
"k. c #4CD2D2",
"l. c #AAEAEA",
"z. c #BDEEEE",
"x. c #55D5D5",
"c. c #63D8D8",
"v. c #B1ECEC",
"b. c #ADEAEA",
"n. c #91E4E4",
"m. c #54D4D4",
"M. c #62D8D8",
"N. c #D5F5F5",
"B. c #F3FCFC",
"V. c #99E6E6",
"C. c #C4F0F0",
"Z. c #56D5D5",
"A. c #4AD2D2",
"S. c #9EE7E7",
"D. c #EBFAFA",
"F. c #73DCDC",
"G. c #71DBDB",
"H. c #66D9D9",
"J. c #99E5E5",
"K. c #AFEBEB",
"L. c #A2E8E8",
"P. c #41D0D0",
"I. c #83E0E0",
"U. c #E9FAFA",
"Y. c #67D9D9",
"T. c #53D4D4",
"R. c #90E3E3",
"E. c #94E4E4",
"W. c #C7F1F1",
"Q. c #59D5D5",
"!. c #7FDFDF",
"~. c #A6E9E9",
"^. c #B7EDED",
"/. c #B6EDED",
"(. c #F7FDFD",
"). c #CEF3F3",
"_. c #58D5D5",
"`. c #C6F1F1",
"'. c #F1FBFB",
"]. c #91E3E3",
"[. c #BFEFEF",
"{. c #D5F4F4",
"}. c #E8F9F9",
"|. c #82E0E0",
" X c #AEEBEB",
".X c #E1F7F7",
"XX c #98E5E5",
"oX c #72DCDC",
"OX c #71DCDC",
"+X c #61D8D8",
"@X c #B0EBEB",
"#X c #7EDFDF",
"$X c #7BDEDE",
"%X c #F9FDFD",
"&X c #5BD6D6",
"*X c #D9F5F5",
"=X c #6BDADA",
"-X c #CBF2F2",
";X c #46D1D1",
":X c #87E1E1",
">X c #A4E8E8",
",X c #A8E9E9",
"<X c #D1F3F3",
"1X c #7CDEDE",
"2X c #8EE3E3",
"3X c #65D8D8",
"4X c #70DBDB",
"5X c #69D9D9",
"6X c #6DDBDB",
"7X c #74DCDC",
"8X c #9BE6E6",
"9X c #C2F0F0",
/* pixels */
"                                                                                                                                ",
"                                                                                                                                ",
"                                                                                                                                ",
"                                                                                                                                ",
"                                                                                                                                ",
"                                                                                                                                ",
"                                                                                                                                ",
"                                                                                                                                ",
"                                                                                                                                ",
"                                                . X o                               O + @ # $ O                                 ",
"                                                % & *                           = - ; : > , < 1 2 =                             ",
"                                              3 4 5 6                         7 8 9 0 q w w q 0 e 8 r                           ",
"                                              t y u i                       p 6 a , s d f g h j , a k p                         ",
"                                                l z x c                     d v b n =         m k a : M                         ",
"                                                N B V                     t C u Z r             A S u D t                       ",
"                          F G H                 c A p                     7 J K L               p P I U Y                       ",
"                        3 j T R E                                         W Q ! ~             ^ / ( ) 9 _ ` O                   ",
"                          h ' u w F                                       ] [ { -             % } b |  .u , 4 X                 ",
"                            ^ ..} X.                                      m o.u O.3           +.@.#.F $.%.&.) *.Y               ",
"                              =.-.;.                                        :. .< M                     m -.>.{ ,.              ",
"                                                                          m <.b } 1.                      t k 2.' g             ",
"                                                                        7 3.4.} %.f                         5.6.4.7.            ",
"                                                                      8.x { 9.0.Y                           7 U q.w.            ",
"                                                                    e.r.t.y.u..       3 $ i.                A p.} V             ",
"                                                                  a.p.T s.w.p         H d.B 8.              f.s.&.d             ",
"                                                                ~ & u & ~             =.g.} ,.            p 8 I R h.            ",
"                      m H 5.o                               3 :.j.T p.a.                i ) k.w.=       7 l.&.b 1.              ",
"                      z.j.x.N                             = ,.y.t.r.e.                h c.T u &._ v.` b.1 b } n.O               ",
"                      $.m.M.N.                          B.V.> { x 8.              t C.Z.T c.o.q u t.{ I u A.S.B.                ",
"                      m =.g c                         D.4 } 4.S.7               o @.: ) F.$ = @ y G.H.G.J.M p                   ",
"                                                    H 1 I >.K.m               O L.P.q.I.U.      t O B.O t                       ",
"                                                  E Y.0 T.- c               W R. .b E.]                                         ",
"                                              t W.Q.u ' N                 i.!.K | ~..                                           ",
"                                            p ^.< ) B ^                 ^ ..) < /.p                                             ",
"                                          (.n | K !.=.                ).Q u _.`.t                 c g =.m                       ",
"                                        '.y b  .].h.              c [.6.0 H.{.                    N.M.m.$.                      ",
"                      t O B.O t       }.|.2.P.k O               m  X>.I ; .X                      N x.j.z.                      ",
"                  p h XXoXH.OXy @ = + G.) A.@.o               7 3.4.} %.X                         o 5.H m                       ",
"                B.3.v u I { I u y.*.+XT Z.C.t               8.x { 9.XXB.                                                        ",
"              O R.} b 1 K.- @X#Xe 5 T [ d                 e.$Xt.y.u.%X                                                          ",
"              1.b | ,.7       . ^.&X1 $                 *X=XT s.w.p                                                             ",
"            h.Y.I 8 p           t }.Y                 -Xd.u & ~                                                                 ",
"            d &.s.f.                              3 V j.T p.a.                                                                  ",
"            V q.=XA                             = ,.;Xt.r.e.                                                                    ",
"            w.q.J 7                           B.V.> { x 8.                                  ;.-.=.                              ",
"            7.4.m.e.                        8.:X{ 4.3.7                                     6 } ..^                             ",
"            g ' 2.>Xt   (.W.^               1.} b ,Xm                                       <Xw u ' h                           ",
"              l.} : $.t ` &.1X.             h < b V                                           E R T j 3                         ",
"              Y |.I ;X2X..0 O.3             3 O.u |.m                     p r t                 H G N                           ",
"                D.s 4.0 I b [.                - { 3XY                     :.4XN                                                 ",
"                  (.C.|.4.> W.                ~ ! Q W                   c s z l                                                 ",
"                      ] 5Xt.@X                1.K 6X7                     i u y t                                               ",
"                      t E.u 7XB.            r Z u D t                     6 5 4 3                                               ",
"                        d A.a L.=         = n b : M                       W.&X%                                                 ",
"                        p G a , x h g g d s , a k p                       o X .                                                 ",
"                          r 8Xe u q w w q 0 e 8XO                                                                               ",
"                            = 2 1 < , > : S 9Xm                                                                                 ",
"                                O $ # -X+ O                                                                                     ",
"                                                                                                                                ",
"                                                                                                                                ",
"                                                                                                                                ",
"                                                                                                                                ",
"                                                                                                                                ",
"                                                                                                                                "
};
