/* XPM */
static char *result[] = {
/* columns rows colors chars-per-pixel */
"64 64 80 1 ",
"  c #6662F7",
". c #6965F7",
"X c #626AF3",
"o c #6D69F7",
"O c #6D68F8",
"+ c #7975F8",
"@ c #7F7CF8",
"# c #817EF8",
"$ c #3EB2D6",
"% c #5D82EC",
"& c #7695EF",
"* c #35C5CE",
"= c #3AC7CF",
"- c #33CCCC",
"; c #3BCECE",
": c #3AC7D0",
"> c #41CFCF",
", c #59C2DA",
"< c #44D0D0",
"1 c #4CD2D2",
"2 c #52D4D4",
"3 c #5BD6D6",
"4 c #61C6DC",
"5 c #65C8DD",
"6 c #61D7D7",
"7 c #65D9D9",
"8 c #6BDADA",
"9 c #73DCDC",
"0 c #7CDEDE",
"q c #8582F9",
"w c #8985F9",
"e c #8F8CF9",
"r c #989EF7",
"t c #9593F9",
"y c #9996F9",
"u c #9C9AF9",
"i c #A09EFA",
"p c #9CA2F7",
"a c #A4A2FA",
"s c #A9A7FA",
"d c #AEACFA",
"f c #B0AEFB",
"g c #AFB3F9",
"h c #B3B1FB",
"j c #B8B6FB",
"k c #BCBAFB",
"l c #80DFDF",
"z c #81DFE0",
"x c #B5CAF5",
"c c #B9CEF5",
"v c #84E0E0",
"b c #8CE2E2",
"n c #94E4E4",
"m c #9BE6E6",
"M c #A0E7E7",
"N c #A9E7EA",
"B c #A5E8E8",
"V c #ACEAEA",
"C c #B4ECEC",
"Z c #BBEEEE",
"A c #C8C6FC",
"S c #CCCAFD",
"D c #D3D1FC",
"F c #DAD8FD",
"G c #C1EFEF",
"H c #C4EFF0",
"J c #C5F0F0",
"K c #CBF2F2",
"L c #D4F4F4",
"P c #DCF6F6",
"I c #E0EEFA",
"U c #F0EFFE",
"Y c #E1F7F7",
"T c #E3F0FA",
"R c #E4F8F8",
"E c #ECFAFA",
"W c #F2F2FE",
"Q c #F8F7FF",
"! c #F4FCFC",
"~ c #FFFFFF",
/* pixels */
"~~~~~~~~~~~~~~~~~~~~~~~~~~~~~~~~~~~~~~~~~~~~~~~~~~~~~~~~~~~~~~~~",
"~~~~~~~~~~~~~~~~~~~~~~~~~~~~~~~~~~~~~~~~~~~~~~~~~~~~~~~~~~~~~~~~",
"~~~~~~~~~~~~~~~~~~~~~~~~~~~~~~~~~~~~~~~~~~~~~~~~~~~~~~~~~~~~~~~~",
"~~~~~~~~~~~~~~~~~~~~~~~~~~~~~~~~~~~~~~~~~~~~~~~~~~~~~~~~~~~~~~~~",
"~~~~~~~~~~~~~~~~~~~~~~~~~~~~~~~~~~~~~~~~~~~~~~~~~~~~~~~~~~~~~~~~",
"~~~~~~~~~~~~~~~~~~~~~~~~~~~~~~~~~~~~~~~~~~~~~~~~~~~~~~~~~~~~~~~~",
"~~~~~~~~~~~~~~~~~~~~~~~~~~~~~RB00BY~~~~~~~~~~~~~~~~~~~~~~~~~~~~~",
"~~~~~~~~~~~~~~~~~~~~~~~~~~~EV6----3NE~~~~~~~~~~~~~~~~~~~~~~~~~~~",
"~~~~~~~~~~~~~~~~~~~~~~~~~!Z8;-1bb2-;8Z!~~~~~~~~~~~~~~~~~~~~~~~~~",
"~~~~~~~~~~~~~~~~~~~~~~~~Lv<-<vL~~Lb<->vK~~~~~~~~~~~~~~~~~~~~~~~~",
"~~~~~~~~~~~~~~~~~~~~~~Ym1-;9J~~~~~~J0;-1nP~~~~~~~~~~~~~~~~~~~~~~",
"~~~~~~~~~~~~~~~~~~~~EV3--7CE~~~~~~~~!C7--3BE~~~~~~~~~~~~~~~~~~~~",
"~~~~~~~~~~~~~~~~~~!Z8;-2mR~~~~~YP~~~~~EM3--8Z!~~~~~~~~~~~~~~~~~~",
"~~~~~~~~~~~~~~~~~Kv>-<bL~~~~~RB22mR~~~~~Pb<->0J~~~~~~~~~~~~~~~~~",
"~~~~~~~~~~~~~~~Pn1-;0J!~~~~!C7;--;6C!~~~~!K0;-1nP~~~~~~~~~~~~~~~",
"~~~~~~~~~~~~~EN3-;6C!~~~~~K9;-1bn1-;9J!~~~~!Z7--2BE~~~~~~~~~~~~~",
"~~~~~~~~~~~!Z8;-2mR~~~~~Pb<->lK~~Lv>-<vL~~~~~EM3--7Z!~~~~~~~~~~~",
"~~~~~~~~~~K0>-<bP~~~~~Em2-;7Z!~~~~!G9;-2mY~~~~~Pn1-;0K!~~~~~~~~~",
"~~~~~~~~Pn1->0J~~~~~!C7--3BE~~~~~~~~EV3--6CE~~~~~K0>-<bP~~~~~~~~",
"~~~~~~~Z3--7C!~~~~!J9;-1mP~~~~~~~~~~~~Ym1-;9G!~~~~!Z7;-3Z~~~~~~~",
"~~~~~~L2-2BE~~~~~Lb<-<lL~~~~~~~~~~~~~~~~Lv<-<vL~~~~~EB2-2K~~~~~~",
"~~~~~~n-3L~~~~~Rm2-;8G!~~~~~~~~~~~~~~~~~~!J9;-2mR~~~~~P3-n~~~~~~",
"~~~~~!9-n~~~~EC3--6VE~~~~~~~~~~~~~~~~~~~~~~EC3--3VE~~~~m-9!~~~~~",
"~~~~~~v-0!~!J9;-2mY~~~~~~~~~~~~~~~~~~~~~~~~~~Rm2-;8J!~!0-v~~~~~~",
"~~~~~~Z;;vNl<-<vL~~~~~~~~~~~~~~~~~~~~~~~~~~~~~~Lv1->0Bv;;C~~~~~~",
"~~~~~~!b;---;9H!~~~~~~~~~~~~~~~~~~~~~~~~~~~~~~~~!J9;-;-;v!~~~~~~",
"~~~~~~~!N,$4CE~~~~~~~~~~~~~~~~~~~~~~~~~~~~~~~~~~~~!C5$,N!~~~~~~~",
"~~~~~~~~~pXg~~~~~~~~~PJKE~~~~~~~~~~~~~~EKGP~~~~~~~~~hXpQ~~~~~~~~",
"~~~~~~~~Qi d~~~~~~~En1;<6Z~~~~~~~~~~~~G7<;2nE~~~~~~~h uQ~~~~~~~~",
"~~~~~~~~~i d~~~~~~~n-;1<-1J~~~~~~~~~~J1-<1;-n!~~~~~~h uQ~~~~~~~~",
"~~~~~~~~Qu.d~~~~~~L1;nYK7-9JKKKKKKKKJ9-7KYn;<L~~~~~~h uQ~~~~~~~~",
"~~~~~~~~~u.d~~~~~~C;3Y~~C;-;;>>;>;;>>--C~~R3-C~~~~~~h uQ~~~~~~~~",
"~~~~~~~~~i d~~~~~~Z;2P~~R72222222222228P~~P3;C~~~~~~h uQ~~~~~~~~",
"~~~~~~~~Qu d~~~~~~P2;0JE~EPPPPPPPPPPPPR~EKv-2L~~~~~~h uQ~~~~~~~~",
"~~~~~~~~~u d~~~~~~~m-->v!~~~~~~~~~~~~~~!v>-;m!~~~~~~h uQ~~~~~~~~",
"~~~~~~~~~i d~~~~~~~m-;>v!~~~~~~~~~~~~~~~v<--m~~~~~~~g u~~~~~~~~~",
"~~~~~~~~Qi d~~~~~~P2;zKE~EPPPPPPPPPPPPR~ELv-2L~~~~~~h uQ~~~~~~~~",
"~~~~~~~~~u d~~~~~~C;2Y~~P71121111111117P~~R3-C~~~~~~h uQ~~~~~~~~",
"~~~~~~~~~i d~~~~~~Z;2Y~~C;-><<<<<<<<<--V~~R3;C~~~~~~h uQ~~~~~~~~",
"~~~~~~~~Qi d~~~~~~L1;bPJ6-8KKKKKKKKKK9-7GLn-1L~~~~~~h uQ~~~~~~~~",
"~~~~~~~~Qi d~~~~~~~n;-1<-2K~~~~~~~~~~K2-<1;-n~~~~~~~h rQ~~~~~~~~",
"~~~~~~~~~i d~~~~~~~Em2*=7G~~~~~~~~~~~~J7:*2mE~~~~~~~h uQ~~~~~~~~",
"~~~~~~~~Qi d~~~~~~~~~c%&I~~~~~~~~~~~~~~T&%x~~~~~~~~~h uQ~~~~~~~~",
"~~~~~~~~~i d~~~~~~~~~SO#U~~~~~~~~~~~~~~Wq.A~~~~~~~~~h u~~~~~~~~~",
"~~~~~~~~Qi d~~~~~~~~~SoqU~~~~~~~~~~~~~~WqOA~~~~~~~~~h uQ~~~~~~~~",
"~~~~~~~~~i d~~~~~~~~~So#U~~~~~~~~~~~~~~WwOA~~~~~~~~~h uQ~~~~~~~~",
"~~~~~~~~Qi d~~~~~~~~~SoqU~~~~~~~~~~~~~~Wq.A~~~~~~~~~h uQ~~~~~~~~",
"~~~~~~~~~u d~~~~~~~~~So#U~~~~~~~~~~~~~~Ww.A~~~~~~~~~h uQ~~~~~~~~",
"~~~~~~~~Qa d~~~~~~~~~So#U~~~~~~~~~~~~~~WwoA~~~~~~~~Qh uQ~~~~~~~~",
"~~~~~~~~Qi d~~~~~~~~~SoqU~~~~~~~~~~~~~~Ww.A~~~Fdsdddw.@sdF~~~~~~",
"~~~~~~~~~u d~~~~~~~~~So#U~~~~~~~~~~~~~~Wq.A~~Qu. .       uQ~~~~~",
"~~~~~~~~Qa d~~~~~~~~~SoqU~~~~~~~~~~~~~~WwOA~~Qt waaaauaw tQ~~~~~",
"~~~~~~~~Qi d~~~~~~~~~So#U~~~~~~~~~~~~~~Ww.S~~Qt.j~Q~Q~~j.tQ~~~~~",
"~~~~~~~~~i d~~~~~~~~~SoqU~~~~~~~~~~~~~~Wq.A~~Qt j~~~~~~j.tQ~~~~~",
"~~~~~~~~~u d~~~~~~~~~SoqU~~~~~~~~~~~~~~WwoA~~Qt h~~~~~~j tQ~~~~~",
"~~~~~~~~~i.ejkkkkkkkku.+hkkkkkkkkkkkkkjj+.ujkj#.efffdhjt tQ~~~~~",
"~~~~~~~~Qa  . .......    .............. . ...         .  yQ~~~~~",
"~~~~~~~~~DutttttttttttttttttttttttttttttttttttttttttttttyS~~~~~~",
"~~~~~~~~~~QQQQQQQQQQQQQQQQQQQQQQQQQQQQQQQQQQQQQQQQQQQQQQQ~~~~~~~",
"~~~~~~~~~~~~~~~~~~~~~~~~~~~~~~~~~~~~~~~~~~~~~~~~~~~~~~~~~~~~~~~~",
"~~~~~~~~~~~~~~~~~~~~~~~~~~~~~~~~~~~~~~~~~~~~~~~~~~~~~~~~~~~~~~~~",
"~~~~~~~~~~~~~~~~~~~~~~~~~~~~~~~~~~~~~~~~~~~~~~~~~~~~~~~~~~~~~~~~",
"~~~~~~~~~~~~~~~~~~~~~~~~~~~~~~~~~~~~~~~~~~~~~~~~~~~~~~~~~~~~~~~~",
"~~~~~~~~~~~~~~~~~~~~~~~~~~~~~~~~~~~~~~~~~~~~~~~~~~~~~~~~~~~~~~~~"
};
