/* XPM */
static char *_175f69dbc18435dfa632cd9ef27d0fcDB5m8zqOujuySkUo[] = {
/* columns rows colors chars-per-pixel */
"64 64 240 2 ",
"   c #22355E",
".  c #151F74",
"X  c #1C2867",
"o  c #1E2E6D",
"O  c #1D366B",
"+  c #0E2879",
"@  c #152674",
"#  c #1B2474",
"$  c #1B2A74",
"%  c #15277A",
"&  c #1C2B7A",
"*  c #0E3676",
"=  c #1C3573",
"-  c #193478",
";  c #232C6C",
":  c #282D68",
">  c #25346C",
",  c #2B356E",
"<  c #27386A",
"1  c #363D6A",
"2  c #232C73",
"3  c #282B76",
"4  c #222C7C",
"5  c #243374",
"6  c #2C3374",
"7  c #23317A",
"8  c #2B3878",
"9  c #333877",
"0  c #31397C",
"q  c #1E4871",
"w  c #37436C",
"e  c #2C487A",
"r  c #364577",
"t  c #444B7A",
"y  c #4A557F",
"u  c #162887",
"i  c #1B2B83",
"p  c #1A308A",
"a  c #1B2D94",
"s  c #1D3C96",
"d  c #242C86",
"f  c #273587",
"g  c #363A86",
"h  c #27399A",
"j  c #393D94",
"k  c #263CA2",
"l  c #2A38A3",
"z  c #403F8F",
"x  c #2A488E",
"c  c #3A4487",
"v  c #3C4596",
"b  c #36678D",
"n  c #2E44A8",
"m  c #3944AC",
"M  c #3A47B5",
"N  c #44478A",
"B  c #495684",
"V  c #565C8C",
"C  c #454997",
"Z  c #50479B",
"A  c #4A559A",
"S  c #56579D",
"D  c #4D6E93",
"F  c #586796",
"G  c #687496",
"H  c #6B739C",
"J  c #4B4FA2",
"K  c #4A53A3",
"L  c #5656A7",
"P  c #5B5BAD",
"I  c #424DB9",
"U  c #5758B1",
"Y  c #625EAD",
"T  c #5A67A7",
"R  c #5D6DAC",
"E  c #6367A5",
"W  c #6677A4",
"Q  c #6A66B7",
"!  c #726EB7",
"~  c #726BBB",
"^  c #786CBC",
"/  c #7672BD",
"(  c #3E51C4",
")  c #444CC5",
"_  c #4856C9",
"`  c #505CD0",
"'  c #5964CB",
"]  c #5964DB",
"[  c #786CC2",
"{  c #7675C7",
"}  c #7C79CA",
"|  c #676BD0",
" . c #645FF2",
".. c #5B64E4",
"X. c #5D68E4",
"o. c #5E66EB",
"O. c #5F67F3",
"+. c #6364E5",
"@. c #6466EB",
"#. c #6866EB",
"$. c #6569ED",
"%. c #6563F5",
"&. c #6567F6",
"*. c #6965F5",
"=. c #6D6AF6",
"-. c #6A63F9",
";. c #7875F4",
":. c #8379CA",
">. c #867CD2",
",. c #807CF7",
"<. c #3B94A8",
"1. c #37B8BE",
"2. c #4D91B1",
"3. c #7985A7",
"4. c #6C94AE",
"5. c #7C84B6",
"6. c #47AFBB",
"7. c #56A9BB",
"8. c #72ADBC",
"9. c #3FBDC2",
"0. c #48B6C4",
"q. c #5FBBC8",
"w. c #3AC3C8",
"e. c #34CBCB",
"r. c #3CCDCD",
"t. c #44C5CA",
"y. c #42CDCE",
"u. c #53C8CC",
"i. c #57CBD0",
"p. c #46D0D0",
"a. c #49D1D1",
"s. c #52D3D3",
"d. c #5BD5D5",
"f. c #67C8CF",
"g. c #77CAD1",
"h. c #6AD7D8",
"j. c #65D8D8",
"k. c #72DBDB",
"l. c #7BDBDC",
"z. c #818CAE",
"x. c #8C9AB7",
"c. c #939AB5",
"v. c #97A3BB",
"b. c #8887CE",
"n. c #889CC7",
"m. c #8A86D7",
"M. c #9484DB",
"N. c #9789D8",
"B. c #928BDC",
"V. c #9696DF",
"C. c #A693DE",
"Z. c #87A4C4",
"A. c #9CA7C7",
"S. c #A3ABCA",
"D. c #ACB5CC",
"F. c #B0B8D1",
"G. c #B5BCD6",
"H. c #8E8DE4",
"J. c #958DE3",
"K. c #9D8BE2",
"L. c #9391E4",
"P. c #9C93EA",
"I. c #9894E9",
"U. c #8683F8",
"Y. c #8986F8",
"T. c #928FF9",
"R. c #9A9AF4",
"E. c #9A97F9",
"W. c #9C9AF9",
"Q. c #A38FE8",
"!. c #A795E7",
"~. c #A294E9",
"^. c #A39BEC",
"/. c #AB9BED",
"(. c #B396EB",
"). c #BB96ED",
"_. c #B49BED",
"`. c #BB9AED",
"'. c #A89AF1",
"]. c #AD9BF2",
"[. c #A19EF9",
"{. c #B596F2",
"}. c #BD96F3",
"|. c #B59CF4",
" X c #BB9BF4",
".X c #BC97FA",
"XX c #B49DF9",
"oX c #BC9CF9",
"OX c #B0B0E7",
"+X c #A9A3F5",
"@X c #ADACFA",
"#X c #B3A0F4",
"$X c #B7A1F7",
"%X c #B8B8F4",
"&X c #B5B3FA",
"*X c #BEBDFB",
"=X c #C297EE",
"-X c #C196F4",
";X c #C19AF3",
":X c #C399FA",
">X c #89C7D1",
",X c #93C9D4",
"<X c #85D9DC",
"1X c #BCC3D6",
"2X c #AEDAE1",
"3X c #89E1E1",
"4X c #94E3E3",
"5X c #9BE5E5",
"6X c #AAE6E7",
"7X c #ACE9EA",
"8X c #B4EBEB",
"9X c #BBEDED",
"0X c #C5CBDB",
"qX c #CCD2DF",
"wX c #CADAE5",
"eX c #D4DAE5",
"rX c #D8DBE6",
"tX c #C8C6F9",
"yX c #CDCAFC",
"uX c #D7D8F8",
"iX c #C3ECEE",
"pX c #CCE9ED",
"aX c #DDE2EA",
"sX c #DDEBEF",
"dX c #CCEEF0",
"fX c #CAF1F1",
"gX c #D3F3F3",
"hX c #DBF6F6",
"jX c #E2E4EC",
"kX c #E6E9EF",
"lX c #E9EBEF",
"zX c #E6E8F3",
"xX c #EAECF2",
"cX c #EFEFFE",
"vX c #E6F6F7",
"bX c #ECFAFA",
"nX c #F2F3F7",
"mX c #F4F4FB",
"MX c #F5FBFC",
"NX c #FEFEFF",
/* pixels */
"NXNXNXNXNXNXNXNXNXNXNXNXNXNXNXNXNXNXNXNXNXNXNXNXNXNXNXNXNXNXNXNXNXNXNXNXNXNXNXNXNXNXNXNXNXNXNXNXNXNXNXNXNXNXNXNXNXNXNXNXNXNXNXNX",
"NXNXNXNXNXNXNXNXNXNXNXNXNXNXNXNXNXNXNXNXNXNXNXNXNXNXNXNXNXNXNXNXNXNXNXNXNXNXNXNXNXNXNXNXNXNXNXNXNXNXNXNXNXNXNXNXNXNXNXNXNXNXNXNX",
"NXNXNXNXNXNXNXNXNXNXNXNXNXNXNXNXNXNXNXNXNXNXNXNXNXNXNXNXNXNXNXNXNXNXNXNXNXNXNXNXNXNXNXNXNXNXNXNXNXNXNXNXNXNXNXNXNXNXNXNXNXNXNXNX",
"NXNXNXNXNXNXNXNXNXNXNXNXNXNXNXNXNXNXNXNXNXNXNXNXNXNXNXNXNXNXNXNXNXNXNXNXNXNXNXNXNXNXNXNXNXNXNXNXNXNXNXNXNXNXNXNXNXNXNXNXNXNXNXNX",
"NXNXNXNXNXNXNXNXNXNXNXNXNXNXNXNXNXNXNXNXNXNXNXNXNXNXNXNXNXNXNXNXNXNXNXNXNXNXNXNXNXNXNXNXNXNXNXNXNXNXNXNXNXNXNXNXNXNXNXNXNXNXNXNX",
"NXNXNXNXNXNXNXNXNXNXNXNXNXNXNXNXNXNXNXNXNXNXNXNXNXNXNXNXNXNXMXbXbXMXNXNXNXNXNXNXNXNXNXNXNXNXNXNXNXNXNXNXNXNXNXNXNXNXNXNXNXNXNXNX",
"NXNXNXNXNXNXNXNXNXNXNXNXNXNXNXNXNXNXNXNXNXNXNXNXNXNXNXNXMXhX7X3X3X6XpXaXrXaXxXMXNXNXNXNXNXNXNXNXNXNXNXNXNXNXNXNXNXNXNXNXNXNXNXNX",
"NXNXNXNXNXNXNXNXNXNXNXNXNXNXNXNXNXNXNXNXNXNXNXNXNXNXNXvX7Xj.r.e.w.6.D r r r H 0XxXNXNXNXNXNXNXNXNXNXNXNXNXNXNXNXNXNXNXNXNXNXNXNX",
"NXNXNXNXNXNXNXNXNXNXNXNXNXNXNXNXNXNXNXNXNXNXNXNXNXMX9Xk.r.e.s.<X8.q X 6 c 9 ; 1 c.xXNXNXNXNXNXNXNXNXNXNXNXNXNXNXNXNXNXNXNXNXNXNX",
"NXNXNXNXNXNXNXNXNXNXNXNXNXNXNXNXNXNXNXNXNXNXNXMXfX<Xa.e.a.3XdX1Xr 5 E b.V.B.~ g , c.kXNXNXNXNXNXNXNXNXNXNXNXNXNXNXNXNXNXNXNXNXNX",
"NXNXNXNXNXNXNXNXNXNXNXNXNXNXNXNXNXNXNXNXNXMXhX5Xs.e.y.k.9XMXlXG ; R ^.|.{.oX].:.g , c.kXNXNXNXNXNXNXNXNXNXNXNXNXNXNXNXNXNXNXNXNX",
"NXNXNXNXNXNXNXNXNXNXNXNXNXNXNXNXNXNXNXMXvX7Xj.e.r.j.7XbXNXNXrXw g H.$X X}.}..X|.:.g < x.kXNXNXNXNXNXNXNXNXNXNXNXNXNXNXNXNXNXNXNX",
"NXNXNXNXNXNXNXNXNXNXNXNXNXNXNXNXNXNXbX9Xk.r.e.d.5XhXMXNXNXNXeX1 C P.|.oX:X-X}.oX{.>.g < 4.sXNXNXNXNXNXNXNXNXNXNXNXNXNXNXNXNXNXNX",
"NXNXNXNXNXNXNXNXNXNXNXNXNXNXNXNXMXfXl.p.e.a.3XgXMXNXNXNXNXvX,X  N ~.XXoX X}.}.}.{.].} 0 O 8.iXMXNXNXNXNXNXNXNXNXNXNXNXNXNXNXNXNX",
"NXNXNXNXNXNXNXNXNXNXNXNXNXNXMXhX4Xs.e.y.l.iXMXMXNXNXMXbX8Xh.9.e 6 } /.{. XXXXXXXoX{.]./ ; x u.4XgXMXNXNXNXNXNXNXNXNXNXNXNXNXNXNX",
"NXNXNXNXNXNXNXNXNXNXNXNXMXvX7Xd.e.r.j.8XbXMXNXNXNXbXiXl.y.e.u.4.> c B.]._._._.|. XoX].m.g = 2.0.q.,XwXeXaXxXMXNXNXNXNXNXNXNXNXNX",
"NXNXNXNXNXNXNXNXNXmXxXbX9Xk.r.e.d.5XvXNXNXNXNXMXgX4Xa.e.p.l.iXaXG o v m.]._. X`. X/.{ v i + - * * * - 8 r H qXmXNXNXNXNXNXNXNXNX",
"NXNXNXNXNXNXNXNXMX0XG g.p.e.a.3XgXMXNXNXNXMXhX5Xd.e.r.k.9XbXNXMXeXF o c m.#X].!.K.Q f % a k k k k k k h f $ r F.mXNXNXNXNXNXNXNX",
"NXNXNXNXNXNXNXNXgX8.q <.y.l.fXbXNXNXNXNXbX7Xj.r.e.d.7XvXMXNXNXNXMXeXV ; C { P C g & i M ` ] +.....X.....' m & r qXMXNXNXNXNXNXNX",
"NXNXNXNXNXNXMX9Xd.1.q b 2XbXMXNXNXMXMXiXk.y.e.s.4XhXMXNXNXNXNXNXNXMXeXV $ & % & @ + n ] @.#.-.*.-.%.*.&.o.] m @ W xXNXNXNXNXNXNX",
"NXNXNXNXNXNXgXd.e.i.4.r 1XkXxXnXMXgX3Xa.e.a.<XfXMXNXNXNXNXNXNXNXNXNXnXn.$ i J Y d a _ o.*.*.-.-.-.-.%.*.o.X.` d e 2XNXNXNXNXNXNX",
"NXNXNXNXNXMX5Xe.d.iXF.8 V G G x.,Xi.e.r.k.9XMXNXNXNXNXNXNXNXNXNXNXNXjXV & U P.m.d a ] O.%.*.%.-.-.-.-.*.&.$.] d = ,XMXNXNXNXNXNX",
"NXNXNXNXNXbXl.e.4XeXW & 2 6 6 > O <.f.7XvXNXNXNXNXNXNXNXNXNXNXNXNXMX1X, N J.#Xm.f p ` O.&.&.*.%.*.%. .*.@.X.` d q g.bXNXNXNXNXNX",
"NXNXNXNXNXbX3Xe.g.G 2 v ~ :.:.P 0 < x.xXNXNXNXNXNXNXNXNXNXNXNXNXNXxXH ; Q ]._.!.C u M o.&.%.$.#.#.*.*.*.o.X.I $ b <XbXNXNXNXNXNX",
"NXNXNXNXNXMX9Xt.2.O C B.#X|.#X/.{ 0 r eXMXNXNXNXNXNXNXNXNXNXNXNXMXwXw 0 M. X{._./ 4 a M X.o.@.#.+.@.#.@.] I d = 7.8XMXNXNXNXNXNX",
"NXNXNXNXNXNXbX<Xb - { ].|.{.XX|.^.P : x.nXNXNXNXNXNXNXNXNXNXNXNXxXz.> S (. X_._.!.Y d u l M m m m m M m l i 7 2.<XbXNXNXNXNXNXNX",
"NXNXNXNXNXNXNXwXe f L.|.).}. X{.XX>.3 t rXMXNXNXNXNXNXNXNXNXNXNXrXy 5 } XX}.`._._.!.Q f u u & 5 5 7 7 7 & x 2.2XvXNXNXNXNXNXNXNX",
"NXNXNXNXNXNXNXaXe f J. X X;X}. XXX^.Z : v.pX9XiXvXNXNXNXNXNXNXmXS.; v I.|.}.`.`.`.`.!.J $ T S.D.F.G.G.G.V.+.R.MXNXNXNXNXNXNXNXNX",
"NXNXNXNXNXNXNXkXF 7 :.XX X X}. X{.|.^ : B f.a.p.j.8XMXNXNXNXNXjXE 3 ~ ].|. X X`.`. XN.g 8 0XnXmXmXMXMXmX@X*.W.MXNXNXNXNXNXNXNXNX",
"NXNXNXNXNXNXNXmXS.; L ].{.{. X X XXXK.c < 8.d.a.e.s.9XMXNXNXmXG.9 g M.{.XX{. X X}. X~ ; D sXNXNXNXNXNXNX@X*.W.MXNXNXNXNXNXNXNXNX",
"NXNXNXNXNXNXNXNXeX9 0 M.XX{. X`.).{.].Y ; W wXiXh.t.l.iXpXpXpX3.; L (.}. X{. X X XQ.C = 7.iXNXNXNXNXNXNX@X*.W.MXNXNXNXNXNXNXNXNX",
"NXNXNXNXNXNXNXNXxXE 2 Q ].XX X`.}.oXXX>.7 e n.A.A.x.Z.Z.Z.Z.n.c o / `.=X{. X}. XXX>.2 x 0.7XNXNXNXNXNXNX@X*.W.MXNXNXNXNXNXNXNXNX",
"NXNXNXNXNXNXNXNXmXB.$ C P.{.;X`.}. XXXN.f + - 7 2 o O O = - - @ 4 b.`.=X).}.}.{.'.L 2 2.t.7XNXNXNXNXNXNX@X*.W.MXNXNXNXNXNXNXNXNX",
"NXNXNXNXNXNXNXNXMXI.c 4 } |.(.`.}. X$Xm.f u h l h h x x h n k u i { |.`.).). X#XH.f O 0.d.gXNXNXNXNXNXNX@X*.W.MXNXNXNXNXNXNXNXNX",
"NXNXNXNXNXNXNXNXMXR.' X C P.#X|.XXXX/.Q & h ] +.+.+.X.X.X.+.] M u K ^.#X`. X|./.T X b w.4XMXNXNXNXNXNXNX@X*.W.MXNXNXNXNXNXNXNXNX",
"NXNXNXNXNXNXNXNXMX[.+.9 5 T L.'.].^./ f i I @.*.*.*.%.*.%.*.#._ a i U J./.|.~.Q 5 < 7.r.4XMXNXNXNXNXNXNX@X*.W.MXNXNXNXNXNXNXNXNX",
"NXNXNXNXNXNXNXNXMX[.*.b.e $ v P P C i + n ] &.-.-.-.*.*.-.*.*.o.M u % v L L C 4 > 3.l.r.s.gXNXNXNXNXNXNX@X*.W.MXNXNXNXNXNXNXNXNX",
"NXNXNXNXNXNXNXNXMX[.*.+Xn.- @ # 4 . + s ` X.%.-.%.-.*.%.-.-.%.$.] n % @ # # . # T eXgXd.r.7XNXNXNXNXNXNX@X*.W.MXNXNXNXNXNXNXNXNX",
"NXNXNXNXNXNXNXNXMX[.*.L.A % 4 j j d i a ( X.=.%.%.*.*.*.-.-.%.o._ h % 4 g j f # r A.gXd.r.7XNXNXNXNXNXNX@X*.W.MXNXNXNXNXNXNXNXNX",
"NXNXNXNXNXNXNXNXMX[.+.N o v { J.K.m.L p a ` $.*.*.*.@.*.*. .*...k u v } B.I.m.L ; w >Xy.s.fXNXNXNXNXNXNX@X*.W.MXNXNXNXNXNXNXNXNX",
"NXNXNXNXNXNXNXNXMXR.| ; c J.].|.|.|.P.U u n X.$.*.*.$.$.#.#.+.) u v B.#X|.|.XX~.S X D t.4XMXNXNXNXNXNXNX@X*.W.MXNXNXNXNXNXNXNXNX",
"NXNXNXNXNXNXNXNXMXR.K 2 ~ |.{. X`._.{.>.i p M I ) ) ) ( ) ) M h i Q /.$X_.{.oXXX>.3 e ,XvXNXNXNXNXNXNXNX@X*.W.MXNXNXNXNXNXNXNXNX",
"NXNXNXNXNXNXNXNXMXL.& g K. X). X`.`.XXJ.f + + & % i u % % % & @ 4 }  X}.`.{. X X/.Z 5 S.nXNXNXNXNXNXNXNX@X*.W.MXNXNXNXNXNXNXNXNX",
"NXNXNXNXNXNXNXNXnX5.& U {.}.).;X`.).oXM.8 = D F E W W W W W T r ; / `.).}.}. X XXX[ 2 F kXNXNXNXNXNXNXNX@X*.W.MXNXNXNXNXNXNXNXNX",
"NXNXNXNXNXNXNXNXjXN 7 >. X}.;X`.;X}. X[ ; F OXI.uXzXxXxXxXxXrX5.; S (.`.).;X}. XXXJ.g 8 wXMXNXNXNXNXNXNX@X*.W.MXNXNXNXNXNXNXNXNX",
"NXNXNXNXNXNXNXMX0X5 z ~. X}. X X`.oX'.Z : z.;.Y.cXNXNXNXNXNXMXG.8 0 N. X).}.}. X{.].P ; x.nXNXNXNXNXNXNX@X*.W.MXNXNXNXNXNXNXNXNX",
"NXNXNXNXNXNXNXxXz.2 Q _. X`.{.|.|.#Xm.3 r OX;.U.cXNXNXNXNXNXNXjXF ; ~ ].|.XX{.{.{.#X:.6 B jXNXNXNXNXNXNX@X*.W.MXNXNXNXNXNXNXNXNX",
"NXNXNXNXNXNXNXaXc f M. X`.}.|.|.#X'.P ; W %X=.U.cXNXNXNXNXNXNXnXA.; C P.#X|.XXXX{._.C.N , G.mXNXNXNXNXNX@X*.W.MXNXNXNXNXNXNXNXNX",
"NXNXNXNXNXNXmXF.5 J /.XX).}. XXX+XJ.g 6 1XtX=.U.cXNXNXNXNXNXNXNXrXt 7 } #X X{.XX{.`._.! ; F zXMXMXMXMXMX@X*.W.mXMXNXNXNXNXNXNXNX",
"NXNXNXNXNXNXxXG 5 } '. X}.;X}.XX+X{ 2 V jXyX=.U.cXNXNXNXNXNXNXNXxX3.o P /.`. XoX X`._.N.g r %X@X@X@X@X@XU.*.,.@X@XuXMXNXNXNXNXNX",
"NXNXNXNXNXNXjXr 0 L.XX X-X=X-XXX/.A : S.nXyX=.U.cXNXNXNXNXNXNXNXMX0X8 g N.}.}.}.-X).`./.A 5 B.*.%.%.%.*.*.*.*.%.%.[.mXNXNXNXNXNX",
"NXNXNXNXNXNXjXr c V.|. X-X-X}.XXm.6 t rXMXyX=.U.cXNXNXNXNXNXNXNXNXzXF 2 ^ {. X-X:X}.XX/.K 5 m.*.Y.+X+X+X+XW.[.Y.%.E.cXNXNXNXNXNX",
"NXNXNXNXNXNXjXy 6 b.$X X{.}.{._.E : 3.xXNXyX=.U.cXNXNXNXNXNXNXNXNXmXF.> Z !.oX}..XoXXXI.c , m.%.&XmXmXmXmXmXcX&X*.E.cXNXNXNXNXNX",
"NXNXNXNXNXNXnXc.: S ~.|.XXXX#Xb.9 1 qXMXNXyX=.U.cXNXNXNXNXNXNXNXNXNXaXB : ~ '.oXXXXX^.Q 5 B H.%.*XMXNXNXNXNXMX*X*.E.cXNXNXNXNXNX",
"NXNXNXNXNXNXNXrXt : S b.J.B.{ c : z.zXMXmXyX=.U.zXMXMXMXMXMXMXMXMXmXnXD.w 9 Q B.I.J.T 6 1 S.E.%.&XmXmXmXmXmXmX&X*.E.cXNXNXNXNXNX",
"NXNXNXNXNXNXNXMX1X9 X 6 g 0 5 > V OX*X*X*X[.*.;.&X*X*X*X*X*X*X*X*X*X*X%X5., ; 0 g 0 ; , 5.@XU.%.T.&X&X&X&X&X&XE.%.E.cXNXNXNXNXNX",
"NXNXNXNXNXNXNXNXmXV.U 6 > ; c ' +.*.*.*.*.%.%.%.*.*.*.*.*.*.*.*.*.*.*.*.#.| C 5 2 5 A | #.*.%.%.%.%.%.%.%.%.*.%. .W.mXNXNXNXNXNX",
"NXNXNXNXNXNXNXNXNXuXR.H.L.L.L.R.E.E.E.E.E.E.E.E.E.E.E.E.E.E.E.E.E.E.E.E.E.R.I.J.L.H.I.E.E.E.E.E.E.E.E.E.E.E.E.E.W.yXMXNXNXNXNXNX",
"NXNXNXNXNXNXNXNXNXMXmXcXcXcXcXcXcXcXcXcXcXcXcXcXcXcXcXcXcXcXcXcXcXcXcXcXcXcXcXcXcXcXcXcXcXcXcXcXcXcXcXcXcXcXcXcXmXMXNXNXNXNXNXNX",
"NXNXNXNXNXNXNXNXNXNXNXNXNXNXNXNXNXNXNXNXNXNXNXNXNXNXNXNXNXNXNXNXNXNXNXNXNXNXNXNXNXNXNXNXNXNXNXNXNXNXNXNXNXNXNXNXNXNXNXNXNXNXNXNX",
"NXNXNXNXNXNXNXNXNXNXNXNXNXNXNXNXNXNXNXNXNXNXNXNXNXNXNXNXNXNXNXNXNXNXNXNXNXNXNXNXNXNXNXNXNXNXNXNXNXNXNXNXNXNXNXNXNXNXNXNXNXNXNXNX",
"NXNXNXNXNXNXNXNXNXNXNXNXNXNXNXNXNXNXNXNXNXNXNXNXNXNXNXNXNXNXNXNXNXNXNXNXNXNXNXNXNXNXNXNXNXNXNXNXNXNXNXNXNXNXNXNXNXNXNXNXNXNXNXNX",
"NXNXNXNXNXNXNXNXNXNXNXNXNXNXNXNXNXNXNXNXNXNXNXNXNXNXNXNXNXNXNXNXNXNXNXNXNXNXNXNXNXNXNXNXNXNXNXNXNXNXNXNXNXNXNXNXNXNXNXNXNXNXNXNX",
"NXNXNXNXNXNXNXNXNXNXNXNXNXNXNXNXNXNXNXNXNXNXNXNXNXNXNXNXNXNXNXNXNXNXNXNXNXNXNXNXNXNXNXNXNXNXNXNXNXNXNXNXNXNXNXNXNXNXNXNXNXNXNXNX"
};
