/* XPM */
static char *_ed03c9a22bf4f728115d0545f6c466dY1Z7QKHD9iuNm5xS[] = {
/* columns rows colors chars-per-pixel */
"64 64 238 2 ",
"   c #060E4A",
".  c #05124C",
"X  c #081648",
"o  c #0A144E",
"O  c #141A47",
"+  c #020E5B",
"@  c #031553",
"#  c #0C1455",
"$  c #041C52",
"%  c #0B1B55",
"&  c #03135C",
"*  c #0A145B",
"=  c #051A5B",
"-  c #0B1B5B",
";  c #141B55",
":  c #11185A",
">  c #1A1C5D",
",  c #09204C",
"<  c #13234D",
"1  c #092156",
"2  c #182657",
"3  c #13235A",
"4  c #21265D",
"5  c #090F64",
"6  c #0B1365",
"7  c #021A63",
"8  c #021867",
"9  c #0B1B64",
"0  c #0B1669",
"q  c #0B1D6C",
"w  c #131B61",
"e  c #181A64",
"r  c #131D6C",
"t  c #061A76",
"y  c #0C1B73",
"u  c #161B73",
"i  c #0C2667",
"p  c #182567",
"a  c #1C2B69",
"s  c #0B2373",
"d  c #082576",
"f  c #142272",
"g  c #12247B",
"h  c #1C2878",
"j  c #24296B",
"k  c #283667",
"l  c #343B68",
"z  c #242B72",
"x  c #272A7B",
"c  c #2B3779",
"v  c #33367E",
"b  c #33397C",
"n  c #3C4D76",
"m  c #38457A",
"M  c #414A76",
"N  c #485474",
"B  c #131F8A",
"V  c #0E2282",
"C  c #0F258A",
"Z  c #142887",
"A  c #1A2B82",
"S  c #1D3385",
"D  c #1B2A9F",
"F  c #1E3699",
"G  c #242A80",
"H  c #2A3788",
"J  c #333485",
"K  c #343C8D",
"L  c #27399A",
"P  c #363D93",
"I  c #273DA4",
"U  c #3038A5",
"Y  c #493E96",
"T  c #2F4486",
"R  c #3E4B8C",
"E  c #224397",
"W  c #3E4192",
"Q  c #2842A5",
"!  c #3A45AE",
"~  c #3B46B8",
"^  c #3A52B7",
"/  c #48438B",
"(  c #465988",
")  c #575F86",
"_  c #454897",
"`  c #454C9C",
"'  c #53549B",
"]  c #50509D",
"[  c #56668C",
"{  c #4E6B9B",
"}  c #576A9A",
"|  c #5F7094",
" . c #636D8A",
".. c #626D97",
"X. c #6A7798",
"o. c #747A9E",
"O. c #454DA5",
"+. c #524CAC",
"@. c #5657A5",
"#. c #535CAC",
"$. c #5A5BAE",
"%. c #424DB8",
"&. c #4655BD",
"*. c #5559B1",
"=. c #605EAD",
"-. c #4861A1",
";. c #5A6DA1",
":. c #5F64B1",
">. c #656AA9",
",. c #6375A5",
"<. c #747CA3",
"1. c #6967B8",
"2. c #756CBB",
"3. c #6C78BA",
"4. c #7777BF",
"5. c #4C4ECB",
"6. c #4855C9",
"7. c #4A57D2",
"8. c #4E66D4",
"9. c #5A67DA",
"0. c #746CC4",
"q. c #7A77C7",
"w. c #606DDF",
"e. c #5C5CED",
"r. c #5E5EF4",
"t. c #625CEA",
"y. c #635EF3",
"u. c #695EF7",
"i. c #5C67E7",
"p. c #5F77E4",
"a. c #5D63F2",
"s. c #6663ED",
"d. c #6A64ED",
"f. c #646CEC",
"g. c #6A6AEC",
"h. c #6170ED",
"j. c #6A74ED",
"k. c #6463F4",
"l. c #6A64F4",
"z. c #646AF5",
"x. c #6C6CF2",
"c. c #6567FA",
"v. c #6A64FA",
"b. c #6C6AFB",
"n. c #7166FB",
"m. c #706BFF",
"M. c #6972F6",
"N. c #7270F7",
"B. c #8578CA",
"V. c #8576D4",
"C. c #7F829B",
"Z. c #7586A5",
"A. c #7F87B5",
"S. c #7D81D4",
"D. c #808CB2",
"F. c #8695B8",
"G. c #959CBA",
"H. c #9CA9BE",
"J. c #8A85D5",
"K. c #8485D8",
"L. c #928ADA",
"P. c #9395D0",
"I. c #9CA6C3",
"U. c #9FA7D5",
"Y. c #A4ABC5",
"T. c #ACB2CA",
"R. c #B4B9CB",
"E. c #A5AFD2",
"W. c #A8B3D5",
"Q. c #B3BBD4",
"!. c #8C83E0",
"~. c #968AE3",
"^. c #9C94E5",
"/. c #9B98E8",
"(. c #9B99F2",
"). c #AF8EEE",
"_. c #A594EC",
"`. c #AB97E9",
"'. c #A39CEC",
"]. c #B595E5",
"[. c #B494ED",
"{. c #BB95ED",
"}. c #B59BED",
"|. c #BC9BED",
" X c #AD95F3",
".X c #A69DF3",
"XX c #AD9CF5",
"oX c #B495F2",
"OX c #BC96F3",
"+X c #B49BF3",
"@X c #BC9BF4",
"#X c #BC96F9",
"$X c #B69CF9",
"%X c #BD9CFA",
"&X c #B8A2EE",
"*X c #AAB9E2",
"=X c #AAA2F4",
"-X c #A6A4F8",
";X c #ACA3FB",
":X c #B5A2F4",
">X c #BBA2F4",
",X c #B7AAF6",
"<X c #B5A3FC",
"1X c #BBA4FC",
"2X c #B5ACFE",
"3X c #BBABFD",
"4X c #BBB3FF",
"5X c #C08FEB",
"6X c #C397EC",
"7X c #C29AEE",
"8X c #C195F3",
"9X c #C29DF4",
"0X c #C799FA",
"qX c #C19CF9",
"wX c #C2A2F6",
"eX c #C9AAF7",
"rX c #C2A4FD",
"tX c #C2ABFF",
"yX c #C0B3FF",
"uX c #B6C3D9",
"iX c #BAC6E6",
"pX c #C5CBDB",
"aX c #CBD0DC",
"sX c #C6CCE5",
"dX c #C8D1E5",
"fX c #CAD2E5",
"gX c #D5DBEA",
"hX c #DEE3ED",
"jX c #DBE2F4",
"kX c #E1E2ED",
"lX c #E3E5F2",
"zX c #E4EAF3",
"xX c #EBEDF7",
"cX c #EDF0F4",
"vX c #EDF1F9",
"bX c #F2F4FB",
"nX c #F5FAFE",
"mX c #FFFFFF",
/* pixels */
"mXmXmXmXmXmXmXmXmXmXmXmXmXmXmXmXmXmXmXmXmXmXmXmXmXmXmXmXmXmXmXmXmXmXmXmXmXmXmXmXmXmXmXmXmXmXmXmXmXmXmXmXmXmXmXmXmXmXmXmXmXmXmXmX",
"mXmXmXmXmXmXmXmXmXmXmXmXmXmXmXmXmXmXmXmXmXmXmXmXmXmXmXmXmXmXmXmXmXmXmXmXmXmXmXmXmXmXmXmXmXmXmXmXmXmXmXmXmXmXmXmXmXmXmXmXmXmXmXmX",
"mXmXmXmXmXmXmXmXmXmXmXmXmXmXmXmXmXmXmXmXmXmXmXmXmXmXmXmXmXmXmXmXmXmXmXmXmXmXmXmXmXmXmXmXmXmXmXmXmXmXmXmXmXmXmXmXmXmXmXmXmXmXmXmX",
"mXmXmXmXmXmXmXmXmXmXmXmXmXmXmXmXmXmXmXmXmXmXmXmXmXmXmXmXmXmXmXmXmXmXmXmXmXmXmXmXmXmXmXmXmXmXmXmXmXmXmXmXmXmXmXmXmXmXmXmXmXmXmXmX",
"mXmXmXmXmXmXmXmXmXmXmXmXmXmXmXmXmXmXmXmXmXmXmXmXmXmXmXmXmXmXmXmXmXmXmXmXmXmXmXmXmXmXmXmXmXmXmXmXmXmXmXmXmXmXmXmXmXmXmXmXmXmXmXmX",
"mXmXmXmXmXmXmXmXmXmXmXmXmXmXmXmXmXmXmXmXmXmXmXmXmXmXmXmXmXmXmXmXmXmXmXmXmXmXmXmXmXmXmXmXmXmXmXmXmXmXmXmXmXmXmXmXmXmXmXmXmXmXmXmX",
"mXmXmXmXmXmXmXmXmXmXmXmXmXmXmXmXmXmXmXmXmXmXmXmXmXmXmXmXmXmXmXmXmXmXmXmXnXmXmXmXmXmXmXmXmXmXmXmXmXmXmXmXmXmXmXmXmXmXmXmXmXmXmXmX",
"mXmXmXmXmXmXmXmXmXmXmXmXmXmXmXmXmXmXmXmXmXmXmXmXmXmXmXmXmXmXmXmXmXxXo.2 3 3  .hXmXmXmXmXmXmXmXmXmXmXmXmXmXmXmXmXmXmXmXmXmXmXmXmX",
"mXmXmXmXmXmXmXmXmXmXmXmXmXmXmXmXmXmXmXmXmXmXmXmXmXmXmXmXmXmXmXmXfX, X a b z # o Y.mXmXmXmXmXmXmXmXmXmXmXmXmXmXmXmXmXmXmXmXmXmXmX",
"mXmXmXmXmXmXmXmXmXmXmXmXmXmXmXmXmXmXmXmXmXmXmXmXmXmXmXmXmXmXmXzX1 i >.^.=X'.q.z   I.mXmXmXmXmXmXmXmXmXmXmXmXmXmXmXmXmXmXmXmXmXmX",
"mXmXmXmXmXmXmXmXmXmXmXmXmXmXmXmXmXmXmXmXmXmXmXmXmXmXmXmXmXmXmX .@ 1.,X>X+X%X1X!.x   Y.mXmXmXmXmXmXmXmXmXmXmXmXmXmXmXmXmXmXmXmXmX",
"mXmXmXmXmXmXmXmXmXmXmXmXmXmXmXmXmXmXmXmXmXmXmXmXmXmXmXmXmXmXnXO c (.3XOXOXOX#XrXV.x   H.mXmXmXmXmXmXmXmXmXmXmXmXmXmXmXmXmXmXmXmX",
"mXmXmXmXmXmXmXmXmXmXmXmXmXmXmXmXmXmXmXmXmXmXmXmXmXmXmXmXmXmXcXO _ ;X X%XqXqXOX%XtX~.z $ I.mXmXmXmXmXmXmXmXmXmXmXmXmXmXmXmXmXmXmX",
"mXmXmXmXmXmXmXmXmXmXmXmXmXmXmXmXmXmXmXmXmXmXmXmXmXmXmXmXmXmXbXX v 2X$X%X@XOXqX[.[.1XJ.z . gXmXmXmXmXmXmXmXmXmXmXmXmXmXmXmXmXmXmX",
"mXmXmXmXmXmXmXmXmXmXmXmXmXmXmXmXmXmXmXmXmXmXmXmXmXmXmXmXmXmXmXl j J.+X[.@X>X>X@XrX).3XB.; M mXmXmXmXmXmXmXmXmXmXmXmXmXmXmXmXmXmX",
"mXmXmXmXmXmXmXmXmXmXmXmXmXmXmXmXmXmXmXmXmXmXmXmXmXmXmXmXmXmXmXR.o J =X:X`.+X}.+XoXrX+X=XJ : fXbXvXbXbXbXmXmXmXmXmXmXmXmXmXmXmXmX",
"mXmXmXmXmXmXmXmXmXmXmXmXmXmXmXmXmXmXmXmXmXmXmXmXmXmXmXmXmXmXmXmX( @ T /.,X}.+X[.@X1Xq.H A d 7 7 = = = = 3 X.xXmXmXmXmXmXmXmXmXmX",
"mXmXmXmXmXmXmXmXmXpXN mXmXmXmXmXmXmXmXmXmXmXmXmXmXmXmXmXmXmXmXmXmX( = c '.,X3X1X:X2.f 8 C F L Q I I I L S + 3 fXmXmXmXmXmXmXmXmX",
"mXmXmXmXmXmXmXmXmXaX< pXmXmXmXmXmXmXmXmXmXmXmXmXmXmXmXmXmXmXmXmXmXmXl # K K.#.J x q y &.9.g.x.s.i.M.i.f.w.%.r ; vXmXmXmXmXmXmXmX",
"mXmXmXmXmXmXmXmXmXmXk | mXmXmXmXmXmXmXmXmXmXmXmXmXmXmXmXmXmXmXmXmXmXnXm i s 0 r s d ! i.d.d.n.l.m.e.b.z.i.j.! + <.mXmXmXmXmXmXmX",
"mXmXmXmXmXmXmXmXmXmXF.% zXmXmXmXmXmXmXmXmXmXmXmXmXmXmXmXmXmXmXmXmXmXmXiX= g ` q.A Z 8.z.b.v.v.v.u.v.y.v.a.i.9.h a mXmXmXmXmXmXmX",
"mXmXmXmXmXmXmXmXmXmXjXi ( ..) Y.bXmXmXmXmXmXmXmXmXmXmXmXmXmXmXmXmXmXmXM 9 *.4X/.y C f.a.k.k.k.v.u.v.v.k.z.M.9.A p nXmXmXmXmXmXmX",
"mXmXmXmXmXmXmXmXmXmX,.q w > > o o T.mXmXmXmXmXmXmXmXmXmXmXmXmXmXmXmXjX. J ;X<XL.h V i.z.c.b.x.s.n.u.e.b.z.i.9.A p mXmXmXmXmXmXmX",
"mXmXmXmXmXmXmXmXmX) & K q.L.L.=.z   R.mXmXmXmXmXmXmXmXmXmXmXmXmXmXmX} # 1.1X`.,XP t ~ M.z.a.s.d.s.l.l.z.i.j.&.6 ( mXmXmXmXmXmXmX",
"mXmXmXmXmXmXmXmXQ.@ _ .X3X:X<X3XK.a ; bXmXmXmXmXmXmXmXmXmXmXmXmXmXvX2 p _.%X}.1X4.0 Z ~ M.z.x.x.g.x.N.z.f.6.g % hXmXmXmXmXmXmXmX",
"mXmXmXmXmXmXmXmX( q K.1X+X}.%X X2X$.# G.mXmXmXmXmXmXmXmXmXmXmXmXmXZ.$ ` rXqX}.}.,X$.u B D ~ ~ ! ! ! ~ ~ U y w Y.mXmXmXmXmXmXmXmX",
"mXmXmXmXmXmXmXmXi S ;X+X[.{.@X+X<XL.w k mXmXmXmXmXmXmXmXmXmXmXmXmXk 9 K.rX8X|.}.].&X1.x V t & = = & 0 6 & z sXmXmXmXmXmXmXmXmXmX",
"mXmXmXmXmXmXmXmXi S .X+X9X9XOX%X+X2X_ o T.mXmXmXmXmXmXmXmXmXmXmXW.# K ;XoX@X>X|.7X|.yX@.8 -.iXuXpXsXfXfXlXmXmXmXmXmXmXmXmXmXmXmX",
"mXmXmXmXmXmXmXmXR 9 J.rX@X%X{.@X[.1Xq.: M mXmXmXmXmXmXmXmXmXmXmX' 5 0.3X[.@X>X{.{.@X_.z % vXmXmXmXmXmXmXmXmXmXmXmXmXmXmXmXmXmXmX",
"mXmXmXmXmXmXmXmXQ.. ' 3XoX).wX@X9X$X;XJ o *XmXmXmXmXmXmXmXmXmXsXw x _.%X<X+X@X{.OXtX0.# ( mXmXmXmXmXmXmXmXmXmXmXmXmXmXmXmXmXmXmX",
"mXmXmXmXmXmXmXmXnX2 j _.1XoX>X].{.[.1X=.* ,.mXmXmXmXmXmXmXmXmXD.@ @.wX{.%X+X%XqX%X+XW - fXmXmXmXmXmXmXmXmXmXmXmXmXmXmXmXmXmXmXmX",
"mXmXmXmXmXmXmXmXmXo.: 0.1X$X>X].8X%X1XL.f p *XE.T.T.W.W.W.E.*Xm - q.eX7X[.%XOX#X%X~.6 c mXmXmXmXmXmXmXmXmXmXmXmXmXmXmXmXmXmXmXmX",
"mXmXmXmXmXmXmXmXmXlX@ P ;X+XwX|.OX%X@X'.h d 8 9 - @ $ 1 = = 8 s f /.|.6X6X@XOXoX<X+.* I.mXmXmXmXmXmXmXmXmXmXmXmXmXmXmXmXmXmXmXmX",
"mXmXmXmXmXmXmXmXmXmXm 9 L.>X].|.@XOX>X'.h g F U L L E E L I I V g q.1X7X].|.@X<X-Xz % bXmXmXmXmXmXmXmXmXmXmXmXmXmXmXmXmXmXmXmXmX",
"mXmXmXmXmXmXmXmXmXmXpX. W 4X:X+X+X+X,X2.0 L j.x.g.x.f.j.f.g.j.~ t O.2X>X[.@X X4X#.@ [ mXmXmXmXmXmXmXmXmXmXmXmXmXmXmXmXmXmXmXmXmX",
"mXmXmXmXmXmXmXmXmXmXmX2 p #.;X<X3X2Xq.r g &.g.k.v.v.k.v.k.s.x.7.C t $.=XtX3X2X1.a , hXmXmXmXmXmXmXmXmXmXmXmXmXmXmXmXmXmXmXmXmXmX",
"mXmXmXmXmXmXmXmXmXmXmXhX= q J =.$.W s d Q i.z.v.v.v.v.l.v.v.c.M.^ V q H @.$.P f % Z.mXmXmXmXmXmXmXmXmXmXmXmXmXmXmXmXmXmXmXmXmXmX",
"mXmXmXmXmXmXmXmXmXmXmXmXiXs f 6 u 0 d F p.h.e.b.y.v.l.y.v.v.r.z.p.^ g f r 6 y q 3.mXmXmXmXmXmXmXmXmXmXmXmXmXmXmXmXmXmXmXmXmXmXmX",
"mXmXmXmXmXmXmXmXmXmXmXmXT s u J J u g Z 6.i.m.y.l.b.l.l.n.v.v.z.8.F y r x P h r a uXmXmXmXmXmXmXmXmXmXmXmXmXmXmXmXmXmXmXmXmXmXmX",
"mXmXmXmXmXmXmXmXmXmXmXn - K K.=X;X^.O.u B 9.f.l.l.l.t.x.l.t.b.f.F t K J.'.=X(.` : < bXmXmXmXmXmXmXmXmXmXmXmXmXmXmXmXmXmXmXmXmXmX",
"mXmXmXmXmXmXmXmXmXmXzX. v -X<X+X:X>X<X+.t I j.x.b.b.c.z.x.x.x.6.t H .X<X+X:X<X2X] o [ mXmXmXmXmXmXmXmXmXmXmXmXmXmXmXmXmXmXmXmXmX",
"mXmXmXmXmXmXmXmXmXmXZ.* 2.3X+X@X|.].1X~.y Z 6.%.5.5.7.6.6.6.%.L y 1.<XwX[.+X<X1X~.e k nXmXmXmXmXmXmXmXmXmXmXmXmXmXmXmXmXmXmXmXmX",
"mXmXmXmXmXmXmXmXmXmX= G XXqX[.9X|.|.@X_.G d 7 q 5 y t 8 8 8 q f r J.wX7X{.}.@X+X1XY * uXmXmXmXmXmXmXmXmXmXmXmXmXmXmXmXmXmXmXmXmX",
"mXmXmXmXmXmXmXmXmXuX& *.1X{.{.9X|.].rX_.h i { } >.} { { ;.} ;.c w B.9X{.@X@X{.OXrXV.* ( mXmXmXmXmXmXmXmXmXmXmXmXmXmXmXmXmXmXmXmX",
"mXmXmXmXmXmXmXmXmXm r !.qX8X9X{.9X{.qXB.# ( nXmXmXmXmXmXmXmXmXA.% ] rX{.{.9XOXqX%X.Xx - bXmXmXmXmXmXmXmXmXmXmXmXmXmXmXmXmXmXmXmX",
"mXmXmXmXmXmXmXmXxX@ J <X@X{.9X{.[.rX1XY # P.mXmXmXmXmXmXmXmXmXsX3 z `.wX[.9XOX%XoX3X:.  G.mXmXmXmXmXmXmXmXmXmXmXmXmXmXmXmXmXmXmX",
"mXmXmXmXmXmXmXmXF.9 1.rX{.{.+X:X}.<X~.e k bXmXmXmXmXmXmXmXmXmXmX( * 0.3X+X>X+X+X+X1XL.> k mXmXmXmXmXmXmXmXmXmXmXmXmXmXmXmXmXmXmX",
"mXmXmXmXmXmXmXmXp f _.>X{.@X+X+XXX2X$.* ..mXmXmXmXmXmXmXmXmXmXmXU.# P ;X:X+X$X$X+X}.&X/ . gXmXmXmXmXmXmXmXmXmXmXmXmXmXmXmXmXmXmX",
"mXmXmXmXmXmXmXsX@ ` 2X@X{.@X9X$X;X(.x ; gXmXmXmXmXmXmXmXmXmXmXmXnXk p K.>X@X+X$X+X}.eX2.* ( mXmXmXmXmXmXmXmXmXmXmXmXmXmXmXmXmXmX",
"mXmXmXmXmXmXmX[ - K.XXOXOX9X{.+X;XS.: m mXmXmXmXmXmXmXmXmXmXmXmXmXo.= #.>X].@X%X%X{.|.`.h 3 mXmXmXmXmXmXmXmXmXmXmXmXmXmXmXmXmXmX",
"mXmXmXmXmXmXmX2 z =X1XqX0X5X9X+X2X` o Q.mXmXmXmXmXmXmXmXmXmXmXmXmXxX= x }.9XOXOX8X{.].1X` @ xXmXmXmXmXmXmXmXmXmXmXmXmXmXmXmXmXmX",
"mXmXmXmXmXmXmX2 b '.+XqX8X0X{.rX^.p 4 nXmXmXmXmXmXmXmXmXmXmXmXmXmXmXR * q.wXOX0X0XOX@X<X#.@ kXmXmXmXmXmXmXmXmXmXmXmXmXmXmXmXmXmX",
"mXmXmXmXmXmXmXl j ~.tX@X[.@X[.tX>.; <.mXmXmXmXmXmXmXmXmXmXmXmXmXmXmXfX@ / <XrX).#X#X+X;XH % bXmXmXmXmXmXmXmXmXmXmXmXmXmXmXmXmXmX",
"mXmXmXmXmXmXmXG.  @.:X$X1X$XtX^.j O vXmXmXmXmXmXmXmXmXmXmXmXmXmXmXmXmXk : q.1X1X$X<X2X3.p k mXmXmXmXmXmXmXmXmXmXmXmXmXmXmXmXmXmX",
"mXmXmXmXmXmXmXnX2 ; ' /..X'.S.v O C.mXmXmXmXmXmXmXmXmXmXmXmXmXmXmXmXmXaX% a 2.(.;X-X:.a   gXmXmXmXmXmXmXmXmXmXmXmXmXmXmXmXmXmXmX",
"mXmXmXmXmXmXmXmXlX<   p b z p . [ mXmXmXmXmXmXmXmXmXmXmXmXmXmXmXmXmXmXmXY.. * z v a - X R.mXmXmXmXmXmXmXmXmXmXmXmXmXmXmXmXmXmXmX",
"mXmXmXmXmXmXmXmXmXnXG.2 2 < n fXmXmXmXmXmXmXmXmXmXmXmXmXmXmXmXmXmXmXmXmXmXlX..2 3 2 X.zXmXmXmXmXmXmXmXmXmXmXmXmXmXmXmXmXmXmXmXmX",
"mXmXmXmXmXmXmXmXmXmXmXmXnXmXmXmXmXmXmXmXmXmXmXmXmXmXmXmXmXmXmXmXmXmXmXmXmXmXmXmXnXmXmXmXmXmXmXmXmXmXmXmXmXmXmXmXmXmXmXmXmXmXmXmX",
"mXmXmXmXmXmXmXmXmXmXmXmXmXmXmXmXmXmXmXmXmXmXmXmXmXmXmXmXmXmXmXmXmXmXmXmXmXmXmXmXmXmXmXmXmXmXmXmXmXmXmXmXmXmXmXmXmXmXmXmXmXmXmXmX",
"mXmXmXmXmXmXmXmXmXmXmXmXmXmXmXmXmXmXmXmXmXmXmXmXmXmXmXmXmXmXmXmXmXmXmXmXmXmXmXmXmXmXmXmXmXmXmXmXmXmXmXmXmXmXmXmXmXmXmXmXmXmXmXmX",
"mXmXmXmXmXmXmXmXmXmXmXmXmXmXmXmXmXmXmXmXmXmXmXmXmXmXmXmXmXmXmXmXmXmXmXmXmXmXmXmXmXmXmXmXmXmXmXmXmXmXmXmXmXmXmXmXmXmXmXmXmXmXmXmX",
"mXmXmXmXmXmXmXmXmXmXmXmXmXmXmXmXmXmXmXmXmXmXmXmXmXmXmXmXmXmXmXmXmXmXmXmXmXmXmXmXmXmXmXmXmXmXmXmXmXmXmXmXmXmXmXmXmXmXmXmXmXmXmXmX",
"mXmXmXmXmXmXmXmXmXmXmXmXmXmXmXmXmXmXmXmXmXmXmXmXmXmXmXmXmXmXmXmXmXmXmXmXmXmXmXmXmXmXmXmXmXmXmXmXmXmXmXmXmXmXmXmXmXmXmXmXmXmXmXmX",
"mXmXmXmXmXmXmXmXmXmXmXmXmXmXmXmXmXmXmXmXmXmXmXmXmXmXmXmXmXmXmXmXmXmXmXmXmXmXmXmXmXmXmXmXmXmXmXmXmXmXmXmXmXmXmXmXmXmXmXmXmXmXmXmX"
};
