/* XPM */
static char *result[] = {
/* columns rows colors chars-per-pixel */
"64 64 62 1 ",
"  c white",
". c #FEFDFF",
"X c #F9F5FE",
"o c #F4EFFD",
"O c #F3ECFD",
"+ c #F2ECFD",
"@ c #F4EEFD",
"# c #F8F4FE",
"$ c #FDFCFF",
"% c #FEFEFF",
"& c #F3EEFD",
"* c #DECDFA",
"= c #CEB5F7",
"- c #C6A9F6",
"; c #C3A4F5",
": c #C2A4F5",
"> c #C5A7F5",
", c #CCB1F7",
"< c #D9C7F9",
"1 c #EFE7FC",
"2 c #E9DDFB",
"3 c #CAAFF6",
"4 c #BD9CF4",
"5 c #BB99F4",
"6 c #BC99F4",
"7 c #BC9AF4",
"8 c #C6A8F6",
"9 c #E1D2FA",
"0 c #FBF9FE",
"q c #C0A1F5",
"w c #E0D0FA",
"e c #F3EDFD",
"r c #C3A5F5",
"t c #EBE2FC",
"y c #D3BDF8",
"u c #C5A8F5",
"i c #F1EAFD",
"p c #C1A1F5",
"a c #BF9EF4",
"s c #E6D9FB",
"d c #E5D8FB",
"f c #E5D9FB",
"g c #C0A0F5",
"h c #E8DCFB",
"j c #F7F3FE",
"k c #CBB1F7",
"l c #C4A6F5",
"z c #DAC7F9",
"x c #CFB7F7",
"c c #F9F6FE",
"v c #C5A8F6",
"b c #E6DAFB",
"n c #E2D3FA",
"m c #BE9DF4",
"M c #D9C5F8",
"N c #FBF8FE",
"B c #D9C5F9",
"V c #ECE2FC",
"C c #C4A7F5",
"Z c #E7DAFB",
"A c #E9DEFB",
"S c #E5D7FB",
/* pixels */
"     .XoO+++++++++++++++++++++++++++++++++++++++++++++++@#$     ",
"   %&*=-;::::::::::::::::::::::::::::::::::::::::::::::;>,<1$   ",
"  $23455666666666666666666666666666666666666666666666666557890  ",
" %2>57777777777777777777777777777777777777777777777777777775qw$ ",
" e35777777777777777777777777777777777777777777777777777777775rt ",
".*477777777777777777777777777777777777777777777777777777777777y0",
"X=577777777777777777777777777777777777777777777777777777777776ui",
"@8577777777777777777777777777777777777777777777777777777777777p2",
"+;677777777777777777777777777777777777777777777777777777777777as",
"+:677777777777777777777777777777777777777777777777777777777777ad",
"+:677777777777777777777777777777777777777777777777777777777777ad",
"+:677777777777777777777777777777777777777777777777777777777777ad",
"+:677777777777777777777777777777777777777777777777777777777777ad",
"+:677777777777777777777777777777777777777777777777777777777777ad",
"+:677777777777777777777777777777777777777777777777777777777777ad",
"+:677777777777777777777777777777777777777777777777777777777777ad",
"+:677777777777777777777777777777777777777777777777777777777777ad",
"+:677777777777777777777777777777777777777777777777777777777777ad",
"+:677777777777777777777777777777777777777777777777777777777777ad",
"+:677777777777777777777777777777777777777777777777777777777777ad",
"+:677777777777777777777777777777777777777777777777777777777777ad",
"+:677777777777777777777777777777777777777777777777777777777777ad",
"+:677777777777777777777777777777777777777777777777777777777777ad",
"+:677777777777777777777777777777777777777777777777777777777777ad",
"+:677777777777777777777777777777777777777777777777777777777777ad",
"+:677777777777777777777777777777777777777777777777777777777777ad",
"+:677777777777777777777777777777777777777777777777777777777777ad",
"+:677777777777777777777777777777777777777777777777777777777777ad",
"+:677777777777777777777777777777777777777777777777777777777777ad",
"+:677777777777777777777777777777777777777777777777777777777777ad",
"+:677777777777777777777777777777777777777777777777777777777777ad",
"+:677777777777777777777777777777777777777777777777777777777777ad",
"+:677777777777777777777777777777777777777777777777777777777777ad",
"+:677777777777777777777777777777777777777777777777777777777777ad",
"+:677777777777777777777777777777777777777777777777777777777777ad",
"+:677777777777777777777777777777777777777777777777777777777777ad",
"+:677777777777777777777777777777777777777777777777777777777777ad",
"+:677777777777777777777777777777777777777777777777777777777777ad",
"+:677777777777777777777777777777777777777777777777777777777777ad",
"+:677777777777777777777777777777777777777777777777777777777777ad",
"+:677777777777777777777777777777777777777777777777777777777777ad",
"+:677777777777777777777777777777777777777777777777777777777777ad",
"+:677777777777777777777777777777777777777777777777777777777777ad",
"+:677777777777777777777777777777777777777777777777777777777777ad",
"+:677777777777777777777777777777777777777777777777777777777777ad",
"+:677777777777777777777777777777777777777777777777777777777777ad",
"+:677777777777777777777777777777777777777777777777777777777777ad",
"+:677777777777777777777777777777777777777777777777777777777777ad",
"+:677777777777777777777777777777777777777777777777777777777777ad",
"+:677777777777777777777777777777777777777777777777777777777777ad",
"+:677777777777777777777777777777777777777777777777777777777777ad",
"+:677777777777777777777777777777777777777777777777777777777777ad",
"+:677777777777777777777777777777777777777777777777777777777777ad",
"+:677777777777777777777777777777777777777777777777777777777777ad",
"+:677777777777777777777777777777777777777777777777777777777777ad",
"+:677777777777777777777777777777777777777777777777777777777777af",
"e>677777777777777777777777777777777777777777777777777777777777gh",
"jk577777777777777777777777777777777777777777777777777777777776l1",
"$z777777777777777777777777777777777777777777777777777777777776xc",
" 1v5777777777777777777777777777777777777777777777777777777776pb ",
" $np67777777777777777777777777777777777777777777777777777776mMN ",
"  0wr767777777777777777777777777777777777777777777777777766pB#  ",
"   $VyvpaaaaaaaaaaaaaaaaaaaaaaaaaaaaaaaaaaaaaaaaaaaaaaaagCxZN   ",
"     0iAdSSSSSSSSSSSSSSSSSSSSSSSSSSSSSSSSSSSSSSSSSSSSSSdh1c     "
};
